<svg width="74" height="33" viewBox="0 0 74 33" fill="none" xmlns="http://www.w3.org/2000/svg">
<path d="M9.91 4.60963H14.08L4.18 32.8696H0.01L9.91 4.60963ZM19.4608 4.60963H23.6308L13.7308 32.8696H9.56078L19.4608 4.60963ZM45.887 8.86963L36.797 29.8696H31.997L22.937 8.86963H28.187L34.577 23.8696L41.057 8.86963H45.887ZM64.7969 25.9096V29.8696H46.4369V26.7196L57.9569 12.8296H46.6769V8.86963H64.3469V12.0196L52.8569 25.9096H64.7969ZM69.9398 30.1096C69.1198 30.1096 68.4298 29.8296 67.8698 29.2696C67.3098 28.7096 67.0298 28.0096 67.0298 27.1696C67.0298 26.3096 67.3098 25.6196 67.8698 25.0996C68.4298 24.5596 69.1198 24.2896 69.9398 24.2896C70.7598 24.2896 71.4498 24.5596 72.0098 25.0996C72.5698 25.6196 72.8498 26.3096 72.8498 27.1696C72.8498 28.0096 72.5698 28.7096 72.0098 29.2696C71.4498 29.8296 70.7598 30.1096 69.9398 30.1096Z" fill="#83838E"/>
</svg>
